<svg width="644" height="511" viewBox="0 0 644 511" fill="none" xmlns="http://www.w3.org/2000/svg">
<g filter="url(#filter0_b_550_446)">
<g clip-path="url(#clip0_550_446)">
<rect width="300" height="300" rx="22" transform="matrix(-0.974992 0.222241 0.974992 0.222241 325 375.044)" fill="url(#paint0_linear_550_446)" fill-opacity="0.8"/>
</g>
</g>
<g clip-path="url(#clip1_550_446)">
<rect width="329" height="329" rx="22" transform="matrix(0.977826 0.209421 -0.977826 0.209421 321.746 333.027)" fill="url(#paint1_linear_550_446)" fill-opacity="0.8"/>
<rect width="329" height="329" rx="22" transform="matrix(0.977826 0.209421 -0.977826 0.209421 321.746 333.027)" fill="#23202A" fill-opacity="0.3"/>
</g>
<ellipse cx="355.158" cy="196.5" rx="206.062" ry="196.5" fill="url(#paint2_radial_550_446)" fill-opacity="0.8"/>
<g clip-path="url(#clip2_550_446)">
<rect width="258" height="129" rx="16" transform="matrix(0.97437 0.224951 0.052336 0.99863 195.811 246.455)" fill="#1F2123"/>
<g clip-path="url(#clip3_550_446)">
<path d="M280.179 328.846C277.319 342.992 262.981 348.683 248.182 341.575C233.363 334.463 223.678 317.227 226.539 303.103C229.398 288.957 243.715 283.261 258.535 290.374C273.332 297.459 283.039 314.7 280.179 328.846Z" fill="#10ABDC"/>
<g clip-path="url(#clip4_550_446)">
<path d="M263.292 318.6L252.663 322.584L241.343 313.533L251.361 297.755L263.292 318.6ZM252.772 324.676L241.453 315.626L253.246 333.706L263.409 320.694L252.772 324.676Z" fill="white"/>
</g>
</g>
<path d="M303.844 309.331L304.1 314.22L309.712 315.516L309.829 317.745L304.217 316.449L304.484 321.554L310.798 323.011L310.915 325.24L301.935 323.167L301.061 306.486L310.041 308.559L310.158 310.788L303.844 309.331ZM323.825 311.765L323.942 313.994L319.616 312.996L320.372 327.424L317.706 326.808L316.95 312.38L312.6 311.376L312.484 309.147L323.825 311.765ZM339.504 315.385L340.377 332.042L337.711 331.427L337.329 324.141L329.682 322.375L330.064 329.661L327.398 329.046L326.525 312.389L329.191 313.004L329.565 320.146L337.212 321.912L336.838 314.77L339.504 315.385ZM351.353 312.225L346.398 337.576L343.779 336.971L348.711 311.615L351.353 312.225ZM357.668 319.579L358.224 330.196C358.291 331.458 358.66 332.483 359.333 333.269C360.021 334.06 360.942 334.588 362.096 334.854C363.265 335.124 364.152 335.014 364.758 334.522C365.379 334.034 365.657 333.159 365.591 331.897L365.034 321.279L367.7 321.895L368.254 332.464C368.325 333.822 368.097 334.906 367.57 335.716C367.042 336.525 366.307 337.05 365.365 337.29C364.423 337.531 363.367 337.516 362.198 337.246C361.029 336.976 359.949 336.498 358.958 335.811C357.982 335.128 357.189 334.251 356.579 333.178C355.968 332.106 355.627 330.891 355.556 329.533L355.002 318.963L357.668 319.579ZM377.408 340.757C376.317 340.505 375.325 340.087 374.431 339.502C373.537 338.901 372.822 338.183 372.286 337.349C371.749 336.515 371.456 335.618 371.405 334.66L374.258 335.318C374.358 336.052 374.662 336.706 375.17 337.281C375.693 337.859 376.399 338.251 377.287 338.456C378.207 338.669 378.913 338.611 379.404 338.282C379.894 337.937 380.12 337.406 380.082 336.687C380.053 336.127 379.866 335.634 379.52 335.207C379.19 334.784 378.778 334.42 378.284 334.117C377.807 333.817 377.141 333.458 376.287 333.04C375.212 332.508 374.332 332.021 373.647 331.578C372.976 331.123 372.39 330.531 371.89 329.799C371.39 329.068 371.112 328.183 371.058 327.145C371.008 326.186 371.197 325.401 371.627 324.79C372.057 324.179 372.683 323.779 373.505 323.59C374.327 323.401 375.291 323.434 376.398 323.69C377.973 324.053 379.28 324.758 380.321 325.803C381.376 326.836 381.995 328.068 382.178 329.499L379.231 328.819C379.153 328.201 378.845 327.617 378.308 327.067C377.771 326.516 377.081 326.144 376.239 325.95C375.475 325.773 374.862 325.829 374.4 326.117C373.938 326.405 373.726 326.924 373.765 327.675C373.792 328.187 373.962 328.644 374.276 329.048C374.605 329.44 375.008 329.785 375.486 330.085C375.963 330.385 376.614 330.74 377.436 331.151C378.528 331.703 379.416 332.208 380.103 332.666C380.805 333.128 381.406 333.733 381.907 334.48C382.423 335.215 382.709 336.109 382.764 337.164C382.809 338.011 382.624 338.757 382.212 339.404C381.814 340.054 381.199 340.512 380.366 340.777C379.548 341.03 378.562 341.024 377.408 340.757ZM390.593 327.18C392.323 327.579 393.853 328.272 395.183 329.258C396.528 330.231 397.585 331.438 398.353 332.878C399.137 334.306 399.573 335.867 399.661 337.561C399.75 339.254 399.469 340.641 398.817 341.722C398.18 342.806 397.225 343.533 395.951 343.902C394.691 344.258 393.196 344.237 391.466 343.837L386.157 342.611L385.284 325.954L390.593 327.18ZM391.349 341.608C393.251 342.047 394.681 341.856 395.639 341.036C396.597 340.215 397.026 338.846 396.925 336.929C396.824 334.996 396.238 333.369 395.168 332.048C394.098 330.728 392.611 329.848 390.709 329.409L388.067 328.799L388.706 340.998L391.349 341.608Z" fill="#EAE0FF"/>
<path d="M311.92 358.206C311.953 358.846 311.829 359.422 311.548 359.936C311.266 360.437 310.83 360.809 310.24 361.055C309.663 361.303 308.953 361.356 308.111 361.214L308.196 362.832L307.144 362.589L307.059 360.971C305.871 360.592 304.89 359.984 304.114 359.147C303.338 358.297 302.916 357.351 302.849 356.31L304.739 356.746C304.82 357.317 305.047 357.85 305.42 358.344C305.805 358.84 306.325 359.217 306.981 359.473L306.719 354.48C305.837 354.053 305.123 353.658 304.578 353.295C304.032 352.933 303.558 352.455 303.155 351.862C302.752 351.269 302.528 350.546 302.483 349.694C302.426 348.616 302.743 347.808 303.434 347.27C304.138 346.735 305.098 346.569 306.315 346.771L306.228 345.113L307.28 345.356L307.367 347.014C308.476 347.362 309.385 347.934 310.094 348.729C310.803 349.51 311.236 350.419 311.392 351.455L309.502 351.019C309.413 350.538 309.189 350.072 308.832 349.621C308.474 349.157 308.013 348.8 307.448 348.552L307.703 353.425C308.572 353.849 309.28 354.243 309.825 354.605C310.382 354.958 310.856 355.429 311.247 356.019C311.65 356.612 311.874 357.341 311.92 358.206ZM304.29 350.013C304.324 350.665 304.539 351.208 304.934 351.641C305.329 352.074 305.896 352.488 306.635 352.882L306.393 348.269C305.721 348.179 305.194 348.281 304.811 348.574C304.428 348.854 304.254 349.334 304.29 350.013ZM308.034 359.736C308.731 359.818 309.263 359.685 309.63 359.335C310.01 358.989 310.184 358.509 310.151 357.897C310.117 357.245 309.896 356.7 309.488 356.264C309.08 355.815 308.513 355.401 307.787 355.023L308.034 359.736ZM314.77 351.959C314.797 350.755 315.208 349.903 316.003 349.402C316.798 348.902 317.858 348.804 319.183 349.11C320.067 349.314 320.836 349.656 321.49 350.136C322.156 350.606 322.666 351.157 323.02 351.792C323.387 352.429 323.589 353.1 323.626 353.806C323.67 354.632 323.473 355.29 323.037 355.781C322.613 356.275 322.036 356.524 321.305 356.526L321.31 356.626C322.165 357.034 322.857 357.607 323.383 358.347C323.909 359.087 324.199 359.963 324.252 360.975C324.292 361.734 324.159 362.38 323.853 362.915C323.547 363.436 323.065 363.792 322.408 363.982C321.75 364.172 320.947 364.158 319.999 363.939C318.622 363.621 317.472 362.994 316.551 362.058C315.628 361.108 315.079 359.942 314.904 358.56L316.619 358.956C316.752 359.776 317.104 360.502 317.677 361.134C318.249 361.766 318.99 362.187 319.899 362.397C320.808 362.607 321.484 362.526 321.927 362.155C322.382 361.773 322.589 361.196 322.549 360.424C322.496 359.425 322.134 358.631 321.461 358.042C320.788 357.452 319.796 357.006 318.484 356.703L318.036 356.6L317.956 355.082L318.424 355.19C319.618 355.452 320.511 355.461 321.101 355.216C321.691 354.957 321.964 354.415 321.921 353.59C321.884 352.884 321.627 352.266 321.15 351.735C320.686 351.207 320.038 350.847 319.207 350.655C318.401 350.469 317.763 350.532 317.291 350.844C316.82 351.156 316.558 351.661 316.504 352.359L314.77 351.959ZM329.038 363.441L327.137 368.31L325.948 368.035L327.089 362.991L329.038 363.441ZM330.506 363.09L330.434 361.711L336.766 353.584L338.89 354.074L339.388 363.581L341.337 364.031L341.419 365.609L339.471 365.159L339.639 368.375L337.885 367.97L337.717 364.754L330.506 363.09ZM337.313 355.585L332.47 361.984L337.712 363.194L337.313 355.585ZM342.417 356.388L342.33 354.73L345.994 355.576L346.75 370.016L344.957 369.602L344.288 356.82L342.417 356.388ZM349.386 359.95C349.413 358.746 349.824 357.894 350.619 357.394C351.414 356.893 352.474 356.796 353.799 357.102C354.683 357.306 355.452 357.648 356.106 358.128C356.772 358.597 357.282 359.149 357.636 359.783C358.003 360.421 358.205 361.092 358.242 361.798C358.286 362.623 358.089 363.282 357.653 363.773C357.229 364.267 356.652 364.515 355.921 364.517L355.926 364.617C356.782 365.025 357.473 365.599 357.999 366.339C358.526 367.079 358.815 367.955 358.868 368.967C358.908 369.725 358.775 370.372 358.469 370.907C358.163 371.428 357.681 371.784 357.024 371.974C356.366 372.164 355.563 372.15 354.615 371.931C353.238 371.613 352.088 370.986 351.167 370.049C350.244 369.1 349.695 367.934 349.52 366.552L351.235 366.948C351.368 367.768 351.72 368.494 352.293 369.126C352.865 369.757 353.606 370.178 354.515 370.388C355.424 370.598 356.1 370.518 356.543 370.146C356.998 369.765 357.205 369.188 357.165 368.415C357.112 367.417 356.75 366.623 356.077 366.033C355.404 365.444 354.412 364.998 353.1 364.695L352.652 364.591L352.572 363.074L353.04 363.181C354.234 363.444 355.127 363.453 355.717 363.208C356.307 362.949 356.58 362.407 356.537 361.582C356.5 360.876 356.243 360.258 355.766 359.727C355.302 359.198 354.654 358.838 353.823 358.646C353.017 358.461 352.379 358.524 351.907 358.836C351.436 359.148 351.174 359.653 351.12 360.351L349.386 359.95ZM362.525 373.777C362.188 373.699 361.895 373.513 361.649 373.219C361.403 372.926 361.27 372.606 361.252 372.26C361.234 371.913 361.336 371.647 361.557 371.462C361.778 371.276 362.058 371.222 362.396 371.3C362.72 371.375 362.999 371.558 363.233 371.849C363.479 372.142 363.612 372.462 363.63 372.808C363.648 373.155 363.546 373.421 363.325 373.606C363.117 373.795 362.85 373.852 362.525 373.777ZM374.258 363.66L367.418 362.081L367.656 366.635C367.933 366.278 368.356 366.034 368.927 365.902C369.497 365.758 370.12 365.763 370.795 365.919C371.874 366.168 372.763 366.604 373.463 367.226C374.162 367.834 374.674 368.538 374.998 369.336C375.334 370.124 375.524 370.924 375.567 371.736C375.617 372.695 375.486 373.513 375.175 374.191C374.864 374.869 374.357 375.344 373.652 375.616C372.961 375.89 372.082 375.904 371.017 375.658C369.653 375.343 368.53 374.729 367.648 373.815C366.765 372.901 366.202 371.824 365.957 370.583L367.692 370.984C367.9 371.782 368.289 372.457 368.857 373.009C369.425 373.561 370.124 373.933 370.956 374.125C371.982 374.362 372.739 374.227 373.226 373.722C373.712 373.202 373.928 372.424 373.873 371.385C373.819 370.346 373.517 369.487 372.968 368.808C372.418 368.116 371.637 367.653 370.624 367.419C369.935 367.26 369.34 367.293 368.838 367.519C368.349 367.735 368.003 368.109 367.8 368.641L366.124 368.254L365.697 360.105L374.174 362.062L374.258 363.66ZM385.656 368.127C385.293 366.583 384.364 365.638 382.87 365.294C381.714 365.027 380.874 365.286 380.351 366.073C379.827 366.847 379.626 368.28 379.748 370.374C380.011 369.75 380.476 369.325 381.145 369.098C381.825 368.86 382.594 368.841 383.452 369.038C384.79 369.347 385.877 370.019 386.715 371.055C387.565 372.093 388.029 373.364 388.108 374.869C388.156 375.774 388.023 376.546 387.71 377.184C387.41 377.825 386.92 378.277 386.241 378.542C385.574 378.809 384.748 378.828 383.76 378.6C382.422 378.291 381.36 377.744 380.575 376.957C379.789 376.171 379.219 375.204 378.863 374.056C378.508 372.909 378.289 371.543 378.206 369.958C377.95 365.072 379.485 363.012 382.81 363.78C384.084 364.074 385.102 364.658 385.867 365.531C386.631 366.405 387.107 367.396 387.293 368.505L385.656 368.127ZM383.162 370.491C382.603 370.362 382.084 370.36 381.602 370.486C381.121 370.598 380.736 370.858 380.45 371.266C380.175 371.663 380.056 372.201 380.091 372.88C380.145 373.892 380.474 374.783 381.079 375.554C381.683 376.312 382.518 376.814 383.583 377.06C384.493 377.27 385.199 377.15 385.701 376.7C386.216 376.241 386.448 375.518 386.396 374.533C386.342 373.494 386.04 372.622 385.489 371.916C384.938 371.197 384.162 370.722 383.162 370.491Z" fill="#ECECEC"/>
</g>
<rect x="-0.513353" y="-0.61179" width="259" height="130" rx="16.5" transform="matrix(0.97437 0.224951 0.052336 0.99863 195.83 246.57)" stroke="#292C2F"/>
<g clip-path="url(#clip5_550_446)">
<rect width="258" height="129" rx="16" transform="matrix(0.978148 0.207912 0.0348995 0.999391 230.073 110.964)" fill="#1F2123"/>
<g clip-path="url(#clip6_550_446)">
<path d="M313.643 191.986C310.508 206.208 295.953 212.164 281.163 205.309C266.352 198.45 256.898 181.357 260.034 167.158C263.17 152.937 277.703 146.976 292.514 153.835C307.303 160.668 316.779 177.765 313.643 191.986Z" fill="#10ABDC"/>
<path d="M297.628 175.513C297.041 171.635 293.893 169.711 289.97 168.548L289.65 163.249L286.646 162.629L286.968 167.79C286.176 167.632 285.364 167.474 284.558 167.34L284.23 162.156L281.227 161.536L281.56 166.811C280.9 166.691 280.26 166.569 279.639 166.447L279.633 166.424L275.474 165.576L275.695 169.016C275.695 169.016 277.913 169.432 277.88 169.457C279.101 169.704 279.542 170.552 279.693 171.233L280.058 177.267C280.144 177.284 280.25 177.301 280.388 177.361C280.282 177.345 280.176 177.328 280.064 177.289L280.582 185.731C280.551 186.125 280.359 186.735 279.521 186.557C279.554 186.601 277.336 186.116 277.336 186.116L276.972 189.846L280.899 190.663C281.632 190.825 282.338 190.965 283.051 191.129L283.383 196.473L286.387 197.094L286.067 191.794C286.885 191.974 287.704 192.154 288.476 192.313L288.809 197.589L291.813 198.209L291.48 192.864C296.533 193.588 299.993 192.96 300.1 187.956C300.203 183.943 298.289 181.736 295.366 180.397C297.079 179.807 298.061 178.342 297.628 175.513ZM294.12 186.092C294.375 190.083 287.937 188.317 285.897 187.89L285.458 180.802C287.497 181.228 293.874 181.916 294.12 186.092ZM292.108 175.785C292.326 179.433 286.964 177.899 285.268 177.543L284.874 171.12C286.571 171.476 291.871 172 292.108 175.785Z" fill="white"/>
</g>
<path d="M342.069 178.769C342.951 179.115 343.711 179.745 344.349 180.658C344.986 181.571 345.323 182.523 345.357 183.515C345.387 184.362 345.194 185.083 344.78 185.678C344.381 186.259 343.782 186.664 342.982 186.89C342.181 187.101 341.241 187.092 340.161 186.862L333.635 185.475L333.053 168.805L339.274 170.128C340.385 170.364 341.347 170.759 342.158 171.312C342.97 171.865 343.59 172.513 344.02 173.255C344.449 173.981 344.678 174.744 344.706 175.544C344.739 176.503 344.517 177.249 344.039 177.783C343.56 178.316 342.904 178.644 342.069 178.769ZM335.974 176.378L339.284 177.081C340.16 177.268 340.834 177.213 341.305 176.916C341.792 176.607 342.021 176.068 341.995 175.301C341.968 174.549 341.698 173.912 341.182 173.39C340.682 172.855 339.994 172.495 339.117 172.308L335.807 171.605L335.974 176.378ZM339.849 184.582C340.756 184.775 341.461 184.702 341.962 184.364C342.462 184.026 342.699 183.458 342.671 182.658C342.642 181.843 342.346 181.137 341.781 180.541C341.217 179.944 340.481 179.55 339.573 179.357L336.052 178.609L336.233 183.813L339.849 184.582ZM358.38 174.189L358.458 176.419L354.115 175.496L354.62 189.936L351.943 189.367L351.439 174.927L347.073 173.999L346.995 171.769L358.38 174.189ZM360.488 182.874C360.431 181.243 360.748 179.858 361.439 178.719C362.145 177.584 363.119 176.791 364.361 176.341C365.619 175.878 367.007 175.808 368.525 176.131C370.262 176.5 371.819 177.267 373.196 178.433C374.587 179.586 375.616 181.027 376.283 182.755L373.066 182.072C372.613 181.103 372.003 180.322 371.237 179.731C370.471 179.139 369.595 178.739 368.609 178.529C367.529 178.3 366.575 178.343 365.747 178.659C364.919 178.975 364.279 179.545 363.826 180.37C363.389 181.197 363.192 182.227 363.235 183.458C363.278 184.689 363.551 185.819 364.052 186.846C364.57 187.876 365.26 188.737 366.123 189.429C366.986 190.104 367.957 190.556 369.037 190.786C370.023 190.995 370.884 190.964 371.62 190.692C372.356 190.42 372.92 189.889 373.312 189.1L376.528 189.783C375.973 191.253 375.03 192.274 373.699 192.848C372.383 193.426 370.857 193.53 369.12 193.16C367.586 192.834 366.173 192.177 364.88 191.188C363.586 190.183 362.542 188.953 361.745 187.498C360.964 186.047 360.545 184.505 360.488 182.874ZM387.725 174.498L382.277 199.981L379.648 199.422L385.072 173.934L387.725 174.498ZM393.959 181.751L394.33 192.377C394.374 193.64 394.728 194.66 395.392 195.436C396.072 196.215 396.991 196.728 398.149 196.974C399.323 197.223 400.219 197.097 400.839 196.593C401.474 196.093 401.769 195.212 401.725 193.949L401.354 183.323L404.03 183.892L404.399 194.469C404.447 195.829 404.198 196.918 403.651 197.739C403.105 198.559 402.355 199.098 401.401 199.355C400.447 199.613 399.383 199.617 398.209 199.367C397.035 199.118 395.955 198.658 394.969 197.988C393.998 197.322 393.214 196.457 392.618 195.394C392.022 194.33 391.7 193.119 391.652 191.76L391.283 181.182L393.959 181.751ZM413.478 202.613C412.383 202.38 411.39 201.979 410.5 201.409C409.61 200.823 408.902 200.117 408.376 199.291C407.85 198.465 407.57 197.572 407.537 196.612L410.401 197.221C410.488 197.954 410.783 198.604 411.284 199.171C411.801 199.741 412.506 200.121 413.398 200.31C414.321 200.507 415.033 200.436 415.534 200.098C416.035 199.744 416.272 199.207 416.247 198.488C416.227 197.928 416.047 197.437 415.706 197.016C415.381 196.597 414.972 196.241 414.481 195.946C414.004 195.654 413.34 195.306 412.487 194.903C411.413 194.389 410.534 193.916 409.851 193.486C409.183 193.042 408.603 192.459 408.112 191.735C407.621 191.012 407.357 190.13 407.321 189.091C407.287 188.132 407.493 187.342 407.937 186.722C408.381 186.102 409.019 185.69 409.851 185.486C410.683 185.282 411.654 185.298 412.766 185.534C414.346 185.87 415.652 186.553 416.682 187.581C417.727 188.597 418.329 189.82 418.488 191.25L415.53 190.622C415.461 190.004 415.162 189.424 414.63 188.883C414.098 188.341 413.41 187.981 412.565 187.801C411.798 187.638 411.179 187.705 410.708 188.002C410.237 188.298 410.014 188.822 410.041 189.574C410.058 190.086 410.222 190.541 410.531 190.94C410.855 191.326 411.255 191.665 411.732 191.957C412.208 192.249 412.857 192.593 413.678 192.99C414.769 193.523 415.656 194.013 416.339 194.46C417.039 194.91 417.634 195.505 418.126 196.244C418.633 196.971 418.905 197.862 418.942 198.918C418.971 199.765 418.772 200.516 418.345 201.171C417.933 201.83 417.304 202.299 416.46 202.58C415.63 202.848 414.637 202.859 413.478 202.613ZM427.011 188.777C428.749 189.146 430.279 189.812 431.602 190.776C432.94 191.727 433.983 192.917 434.732 194.346C435.496 195.762 435.908 197.318 435.967 199.013C436.026 200.708 435.718 202.102 435.041 203.197C434.38 204.294 433.405 205.039 432.113 205.431C430.837 205.811 429.331 205.816 427.593 205.447L422.265 204.314L421.682 187.644L427.011 188.777ZM427.516 203.216C429.425 203.622 430.87 203.405 431.85 202.566C432.831 201.727 433.287 200.348 433.22 198.429C433.153 196.494 432.591 194.875 431.536 193.572C430.481 192.268 428.999 191.413 427.089 191.007L424.436 190.444L424.863 202.652L427.516 203.216Z" fill="#EAE0FF"/>
<path d="M345.115 220.829C345.138 221.469 345.003 222.049 344.71 222.568C344.417 223.075 343.971 223.456 343.371 223.712C342.785 223.971 342.069 224.037 341.223 223.91L341.279 225.529L340.223 225.305L340.166 223.686C338.976 223.327 337.997 222.735 337.231 221.911C336.464 221.073 336.055 220.134 336.006 219.091L337.904 219.495C337.975 220.066 338.194 220.595 338.561 221.083C338.941 221.574 339.458 221.941 340.114 222.187L339.94 217.19C339.058 216.777 338.345 216.395 337.802 216.041C337.259 215.688 336.79 215.217 336.394 214.631C335.998 214.044 335.785 213.324 335.755 212.471C335.718 211.392 336.052 210.577 336.757 210.026C337.476 209.478 338.447 209.294 339.67 209.474L339.612 207.815L340.669 208.04L340.727 209.699C341.838 210.028 342.745 210.584 343.445 211.368C344.145 212.138 344.565 213.041 344.705 214.076L342.807 213.673C342.726 213.192 342.509 212.73 342.157 212.284C341.804 211.826 341.345 211.477 340.78 211.238L340.951 216.115C341.819 216.525 342.525 216.906 343.068 217.26C343.624 217.603 344.093 218.066 344.476 218.65C344.872 219.237 345.085 219.963 345.115 220.829ZM337.571 212.758C337.594 213.411 337.801 213.951 338.191 214.378C338.581 214.805 339.145 215.209 339.884 215.591L339.723 210.974C339.047 210.896 338.513 211.007 338.123 211.308C337.731 211.595 337.547 212.079 337.571 212.758ZM341.171 222.431C341.873 222.501 342.411 222.358 342.787 222.001C343.176 221.647 343.36 221.164 343.339 220.551C343.316 219.898 343.103 219.357 342.699 218.927C342.295 218.484 341.731 218.08 341.006 217.714L341.171 222.431ZM356.016 216.004C355.678 214.464 354.758 213.535 353.259 213.216C352.098 212.969 351.247 213.245 350.705 214.042C350.163 214.826 349.935 216.266 350.021 218.36C350.297 217.731 350.773 217.297 351.451 217.057C352.141 216.807 352.917 216.774 353.778 216.957C355.121 217.242 356.205 217.896 357.031 218.918C357.869 219.943 358.315 221.208 358.367 222.714C358.399 223.62 358.251 224.395 357.924 225.04C357.61 225.687 357.108 226.149 356.419 226.426C355.743 226.706 354.909 226.74 353.918 226.529C352.574 226.244 351.514 225.714 350.736 224.94C349.958 224.167 349.4 223.208 349.063 222.065C348.725 220.922 348.529 219.558 348.473 217.972C348.302 213.082 349.886 210.991 353.225 211.701C354.503 211.973 355.52 212.539 356.275 213.401C357.03 214.262 357.491 215.246 357.66 216.353L356.016 216.004ZM353.46 218.417C352.899 218.298 352.375 218.305 351.888 218.44C351.4 218.561 351.008 218.828 350.712 219.241C350.428 219.644 350.298 220.185 350.322 220.865C350.357 221.877 350.673 222.765 351.269 223.526C351.865 224.274 352.697 224.762 353.767 224.989C354.68 225.184 355.394 225.051 355.908 224.592C356.436 224.122 356.682 223.394 356.648 222.408C356.611 221.368 356.322 220.5 355.78 219.803C355.237 219.092 354.464 218.63 353.46 218.417ZM368.63 218.685C368.291 217.145 367.372 216.216 365.872 215.897C364.711 215.65 363.86 215.926 363.318 216.723C362.776 217.507 362.548 218.947 362.634 221.042C362.91 220.412 363.387 219.978 364.065 219.739C364.755 219.488 365.53 219.455 366.391 219.638C367.735 219.923 368.819 220.577 369.644 221.599C370.483 222.624 370.928 223.889 370.981 225.395C371.012 226.301 370.865 227.076 370.538 227.721C370.224 228.368 369.722 228.831 369.033 229.107C368.356 229.387 367.522 229.421 366.531 229.21C365.188 228.925 364.127 228.395 363.35 227.622C362.572 226.848 362.014 225.889 361.676 224.746C361.339 223.603 361.142 222.239 361.087 220.653C360.916 215.763 362.5 213.672 365.839 214.382C367.117 214.654 368.133 215.22 368.888 216.082C369.643 216.943 370.105 217.927 370.273 219.035L368.63 218.685ZM366.073 221.098C365.512 220.979 364.988 220.986 364.501 221.121C364.014 221.242 363.622 221.509 363.325 221.922C363.042 222.325 362.912 222.866 362.935 223.546C362.971 224.558 363.287 225.446 363.883 226.207C364.478 226.955 365.311 227.443 366.38 227.671C367.293 227.865 368.007 227.732 368.522 227.273C369.049 226.803 369.296 226.075 369.261 225.089C369.225 224.049 368.936 223.181 368.394 222.484C367.851 221.773 367.077 221.311 366.073 221.098ZM375.788 228.639L373.785 233.55L372.592 233.296L373.832 228.223L375.788 228.639ZM385.317 222.232C384.979 220.692 384.059 219.763 382.56 219.444C381.399 219.197 380.548 219.473 380.006 220.27C379.464 221.054 379.236 222.494 379.322 224.589C379.597 223.959 380.074 223.525 380.752 223.286C381.442 223.035 382.218 223.002 383.079 223.185C384.422 223.47 385.506 224.124 386.332 225.146C387.17 226.171 387.615 227.436 387.668 228.942C387.7 229.848 387.552 230.623 387.225 231.268C386.911 231.915 386.409 232.378 385.72 232.654C385.044 232.934 384.21 232.968 383.219 232.757C381.875 232.472 380.815 231.942 380.037 231.169C379.259 230.395 378.701 229.436 378.364 228.293C378.026 227.15 377.829 225.786 377.774 224.2C377.603 219.31 379.187 217.219 382.526 217.929C383.804 218.201 384.821 218.767 385.576 219.629C386.331 220.49 386.792 221.474 386.96 222.582L385.317 222.232ZM382.761 224.645C382.2 224.526 381.676 224.533 381.189 224.668C380.701 224.789 380.309 225.056 380.013 225.469C379.729 225.872 379.599 226.413 379.623 227.093C379.658 228.105 379.974 228.993 380.57 229.754C381.166 230.502 381.998 230.99 383.068 231.218C383.981 231.412 384.695 231.279 385.209 230.82C385.737 230.35 385.983 229.622 385.949 228.636C385.912 227.596 385.623 226.728 385.081 226.031C384.538 225.32 383.765 224.858 382.761 224.645ZM397.931 224.913C397.592 223.373 396.673 222.444 395.173 222.125C394.012 221.878 393.161 222.154 392.619 222.951C392.077 223.735 391.849 225.175 391.935 227.27C392.211 226.64 392.688 226.206 393.365 225.967C394.056 225.717 394.831 225.683 395.692 225.866C397.035 226.151 398.12 226.805 398.945 227.827C399.783 228.852 400.229 230.117 400.281 231.623C400.313 232.529 400.165 233.304 399.838 233.949C399.524 234.597 399.023 235.059 398.333 235.335C397.657 235.615 396.823 235.649 395.832 235.439C394.489 235.153 393.428 234.623 392.65 233.85C391.873 233.076 391.315 232.117 390.977 230.974C390.64 229.831 390.443 228.467 390.388 226.881C390.217 221.991 391.801 219.9 395.14 220.61C396.418 220.882 397.434 221.448 398.189 222.31C398.944 223.171 399.406 224.156 399.574 225.263L397.931 224.913ZM395.374 227.326C394.813 227.207 394.289 227.214 393.802 227.349C393.314 227.47 392.922 227.737 392.626 228.151C392.342 228.553 392.213 229.094 392.236 229.774C392.272 230.787 392.587 231.674 393.184 232.435C393.779 233.184 394.612 233.671 395.681 233.899C396.594 234.093 397.308 233.96 397.823 233.501C398.35 233.031 398.596 232.303 398.562 231.317C398.526 230.277 398.237 229.409 397.694 228.712C397.152 228.001 396.378 227.539 395.374 227.326ZM405.198 233.541C405.355 234.328 405.676 234.978 406.16 235.491C406.657 236.007 407.309 236.35 408.118 236.522C409.201 236.752 409.981 236.488 410.459 235.73C410.951 234.975 411.148 233.569 411.05 231.511C410.797 232.053 410.357 232.429 409.73 232.639C409.103 232.836 408.398 232.852 407.615 232.686C406.741 232.5 405.953 232.154 405.249 231.647C404.558 231.13 404.004 230.476 403.588 229.687C403.172 228.898 402.947 228.003 402.912 227.004C402.862 225.578 403.226 224.518 404.005 223.824C404.783 223.116 405.915 222.92 407.402 223.236C409.228 223.624 410.527 224.502 411.3 225.87C412.085 227.241 412.52 229.125 412.604 231.524C412.662 233.203 412.561 234.557 412.299 235.586C412.05 236.617 411.584 237.345 410.899 237.768C410.228 238.194 409.286 238.278 408.073 238.021C406.743 237.738 405.693 237.151 404.924 236.26C404.155 235.369 403.699 234.346 403.555 233.192L405.198 233.541ZM407.855 231.209C408.729 231.395 409.436 231.274 409.978 230.847C410.519 230.406 410.774 229.713 410.74 228.767C410.706 227.768 410.404 226.903 409.834 226.174C409.265 225.444 408.485 224.974 407.494 224.764C406.581 224.57 405.861 224.708 405.333 225.177C404.819 225.65 404.579 226.366 404.612 227.326C404.646 228.298 404.941 229.135 405.496 229.835C406.051 230.535 406.838 230.993 407.855 231.209ZM416.428 239.896C416.089 239.824 415.798 239.643 415.555 239.353C415.311 239.063 415.184 238.745 415.172 238.399C415.16 238.052 415.267 237.784 415.493 237.594C415.719 237.404 416.002 237.345 416.341 237.417C416.667 237.486 416.945 237.665 417.176 237.952C417.419 238.241 417.546 238.559 417.558 238.906C417.57 239.252 417.463 239.521 417.237 239.711C417.024 239.903 416.754 239.965 416.428 239.896ZM418.95 227.615L418.892 225.956L422.57 226.738L423.074 241.189L421.275 240.807L420.828 228.015L418.95 227.615ZM426.07 234.505C425.99 232.213 426.293 230.506 426.979 229.382C427.664 228.244 428.92 227.87 430.745 228.258C432.558 228.643 433.852 229.56 434.628 231.007C435.403 232.442 435.83 234.305 435.91 236.597C435.992 238.929 435.69 240.664 435.005 241.801C434.32 242.938 433.071 243.314 431.258 242.929C429.432 242.541 428.131 241.623 427.356 240.175C426.58 238.727 426.152 236.837 426.07 234.505ZM434.15 236.223C434.109 235.063 433.997 234.067 433.812 233.235C433.641 232.391 433.311 231.673 432.825 231.08C432.351 230.49 431.677 230.102 430.803 229.917C429.916 229.728 429.247 229.831 428.795 230.224C428.355 230.62 428.072 231.208 427.944 231.987C427.828 232.756 427.791 233.72 427.831 234.88C427.873 236.079 427.98 237.1 428.152 237.944C428.336 238.79 428.666 239.508 429.139 240.098C429.626 240.691 430.313 241.081 431.2 241.27C432.074 241.456 432.73 241.35 433.169 240.954C433.622 240.561 433.905 239.973 434.02 239.191C434.149 238.411 434.192 237.422 434.15 236.223Z" fill="#ECECEC"/>
</g>
<rect x="-0.506524" y="-0.603651" width="259" height="130" rx="16.5" transform="matrix(0.978148 0.207912 0.0348995 0.999391 230.083 111.069)" stroke="#292C2F"/>
<defs>
<filter id="filter0_b_550_446" x="24.5024" y="367.044" width="600.995" height="149.344" filterUnits="userSpaceOnUse" color-interpolation-filters="sRGB">
<feFlood flood-opacity="0" result="BackgroundImageFix"/>
<feGaussianBlur in="BackgroundImageFix" stdDeviation="4"/>
<feComposite in2="SourceAlpha" operator="in" result="effect1_backgroundBlur_550_446"/>
<feBlend mode="normal" in="SourceGraphic" in2="effect1_backgroundBlur_550_446" result="shape"/>
</filter>
<linearGradient id="paint0_linear_550_446" x1="150" y1="0" x2="150" y2="300" gradientUnits="userSpaceOnUse">
<stop stop-color="#55259D" stop-opacity="0.08"/>
<stop offset="0.0001" stop-color="#5022A1" stop-opacity="0.71"/>
<stop offset="1" stop-color="#4F21A1" stop-opacity="0.8"/>
</linearGradient>
<linearGradient id="paint1_linear_550_446" x1="21.0814" y1="-167.542" x2="396.363" y2="251.881" gradientUnits="userSpaceOnUse">
<stop stop-color="#8133F1"/>
<stop offset="0.37" stop-color="#18C8FF"/>
<stop offset="1" stop-color="#8133F1"/>
</linearGradient>
<radialGradient id="paint2_radial_550_446" cx="0" cy="0" r="1" gradientUnits="userSpaceOnUse" gradientTransform="translate(355.158 196.5) rotate(90) scale(201.926 211.752)">
<stop offset="0.822011" stop-color="#23202A"/>
<stop offset="0.929545" stop-color="#D2AFF7" stop-opacity="0.8"/>
<stop offset="0.995" stop-color="#18C8FF"/>
</radialGradient>
<clipPath id="clip0_550_446">
<rect width="300" height="300" rx="22" transform="matrix(-0.974992 0.222241 0.974992 0.222241 325 375.044)" fill="white"/>
</clipPath>
<clipPath id="clip1_550_446">
<rect width="329" height="329" rx="22" transform="matrix(0.977826 0.209421 -0.977826 0.209421 321.746 333.027)" fill="white"/>
</clipPath>
<clipPath id="clip2_550_446">
<rect width="258" height="129" rx="16" transform="matrix(0.97437 0.224951 0.052336 0.99863 195.811 246.455)" fill="white"/>
</clipPath>
<clipPath id="clip3_550_446">
<rect width="56" height="56" fill="white" transform="matrix(0.97437 0.224951 0.052336 0.99863 224.61 281.714)"/>
</clipPath>
<clipPath id="clip4_550_446">
<rect width="26" height="36" fill="white" transform="matrix(0.97437 0.224951 0.052336 0.99863 239.75 295.074)"/>
</clipPath>
<clipPath id="clip5_550_446">
<rect width="258" height="129" rx="16" transform="matrix(0.978148 0.207912 0.0348995 0.999391 230.073 110.964)" fill="white"/>
</clipPath>
<clipPath id="clip6_550_446">
<rect width="56" height="56" fill="white" transform="matrix(0.978148 0.207912 0.0348995 0.999391 258.473 145.768)"/>
</clipPath>
</defs>
</svg>
