<svg width="25" height="24" viewBox="0 0 25 24" fill="none" xmlns="http://www.w3.org/2000/svg">
<g clip-path="url(#clip0_125_256)">
<path d="M16.5002 17.2991L21.5002 12.2991M21.5002 12.2991L16.5002 7.29913M21.5002 12.2991H9.50024M12.5002 17.2991C12.5002 17.5947 12.5002 17.7425 12.4892 17.8705C12.375 19.2011 11.3951 20.296 10.0853 20.5564C9.95927 20.5814 9.81226 20.5978 9.51859 20.6304L8.49718 20.7439C6.96272 20.9144 6.19545 20.9996 5.5859 20.8046C4.77317 20.5445 4.10966 19.9506 3.76142 19.1716C3.50024 18.5873 3.50024 17.8154 3.50024 16.2714V8.32682C3.50024 6.78289 3.50024 6.01093 3.76142 5.42665C4.10966 4.64761 4.77317 4.05373 5.5859 3.79366C6.19545 3.5986 6.9627 3.68385 8.49718 3.85434L9.51859 3.96783C9.81236 4.00048 9.95925 4.0168 10.0853 4.04185C11.3951 4.30228 12.375 5.39717 12.4892 6.72774C12.5002 6.85576 12.5002 7.00355 12.5002 7.29913" stroke="black" stroke-width="2" stroke-linecap="round" stroke-linejoin="round"/>
</g>
<defs>
<clipPath id="clip0_125_256">
<rect width="24" height="24" fill="white" transform="translate(0.500244)"/>
</clipPath>
</defs>
</svg>
