<svg width="25" height="24" viewBox="0 0 25 24" fill="none" xmlns="http://www.w3.org/2000/svg">
<g clip-path="url(#clip0_125_247)">
<path d="M12.5002 15.2993C14.1571 15.2993 15.5002 13.9562 15.5002 12.2993C15.5002 10.6424 14.1571 9.29932 12.5002 9.29932C10.8433 9.29932 9.50024 10.6424 9.50024 12.2993C9.50024 13.9562 10.8433 15.2993 12.5002 15.2993Z" stroke="black" stroke-width="2" stroke-miterlimit="10" stroke-linecap="round" stroke-linejoin="round"/>
<path d="M2.50024 13.1792V11.4192C2.50024 10.3792 3.35024 9.51925 4.40024 9.51925C6.21024 9.51925 6.95024 8.23925 6.04024 6.66925C5.52024 5.76925 5.83024 4.59925 6.74024 4.07925L8.47024 3.08925C9.26024 2.61925 10.2802 2.89925 10.7502 3.68925L10.8602 3.87925C11.7602 5.44925 13.2402 5.44925 14.1502 3.87925L14.2602 3.68925C14.7302 2.89925 15.7502 2.61925 16.5402 3.08925L18.2702 4.07925C19.1802 4.59925 19.4902 5.76925 18.9702 6.66925C18.0602 8.23925 18.8002 9.51925 20.6102 9.51925C21.6502 9.51925 22.5102 10.3692 22.5102 11.4192V13.1792C22.5102 14.2192 21.6602 15.0792 20.6102 15.0792C18.8002 15.0792 18.0602 16.3592 18.9702 17.9292C19.4902 18.8392 19.1802 19.9992 18.2702 20.5192L16.5402 21.5092C15.7502 21.9792 14.7302 21.6992 14.2602 20.9092L14.1502 20.7192C13.2502 19.1492 11.7702 19.1492 10.8602 20.7192L10.7502 20.9092C10.2802 21.6992 9.26024 21.9792 8.47024 21.5092L6.74024 20.5192C5.83024 19.9992 5.52024 18.8292 6.04024 17.9292C6.95024 16.3592 6.21024 15.0792 4.40024 15.0792C3.35024 15.0792 2.50024 14.2192 2.50024 13.1792Z" stroke="black" stroke-width="2" stroke-miterlimit="10" stroke-linecap="round" stroke-linejoin="round"/>
</g>
<defs>
<clipPath id="clip0_125_247">
<rect width="24" height="24" fill="white" transform="translate(0.500244)"/>
</clipPath>
</defs>
</svg>
