<svg width="20" height="24" viewBox="0 0 20 24" fill="none" xmlns="http://www.w3.org/2000/svg">
<path d="M1.15175 8.9654C1.05763 8.83798 0.989539 8.69327 0.951352 8.53953C0.913164 8.3858 0.905631 8.22604 0.929183 8.0694C0.976749 7.75303 1.14804 7.46852 1.40538 7.27845C1.66272 7.08838 1.98502 7.00832 2.30138 7.05589C2.61775 7.10345 2.90226 7.27474 3.09233 7.53208C3.53807 8.13027 3.88645 8.79517 4.12455 9.50216C4.3721 10.2357 4.49763 11.0048 4.49616 11.779C4.49699 12.5511 4.37146 13.3182 4.12455 14.0498C3.88645 14.7568 3.53807 15.4217 3.09233 16.0199C2.90226 16.2773 2.61775 16.4486 2.30138 16.4961C1.98502 16.5437 1.66272 16.4636 1.40538 16.2736C1.14804 16.0835 0.976749 15.799 0.929183 15.4826C0.881618 15.1662 0.961676 14.8439 1.15175 14.5866C1.44627 14.1946 1.67718 13.7587 1.83596 13.2948C2.00479 12.8071 2.09247 12.295 2.09549 11.779C2.09752 11.2658 2.01584 10.7558 1.85366 10.269C1.69056 9.79985 1.45361 9.35979 1.15175 8.9654ZM5.28065 6.7181C6.21951 8.23874 6.71397 9.99183 6.70807 11.779C6.7161 13.5629 6.22581 15.3136 5.29244 16.8339C5.20917 16.9687 5.15327 17.1185 5.12792 17.2749C5.10256 17.4313 5.10826 17.5912 5.14468 17.7453C5.18111 17.8995 5.24754 18.045 5.3402 18.1735C5.43285 18.302 5.54991 18.411 5.68469 18.4943C5.81947 18.5776 5.96933 18.6335 6.12571 18.6588C6.2821 18.6842 6.44195 18.6785 6.59613 18.6421C6.75031 18.6056 6.89581 18.5392 7.02432 18.4466C7.15283 18.3539 7.26183 18.2368 7.3451 18.1021C8.51464 16.2013 9.1277 14.0107 9.11463 11.779C9.12849 9.54528 8.51541 7.35252 7.3451 5.44994C7.26183 5.31516 7.15283 5.1981 7.02432 5.10544C6.89581 5.01279 6.75031 4.94636 6.59613 4.90993C6.44195 4.87351 6.2821 4.86781 6.12571 4.89316C5.96933 4.91852 5.81947 4.97442 5.68469 5.05769C5.54991 5.14096 5.43285 5.24996 5.3402 5.37847C5.24754 5.50698 5.18111 5.65248 5.14468 5.80666C5.10826 5.96084 5.10256 6.12069 5.12792 6.27707C5.15327 6.43346 5.20917 6.58332 5.29244 6.7181H5.28065ZM9.67498 4.4472C10.9783 6.67925 11.6643 9.21785 11.6627 11.8025C11.6636 14.3853 10.9775 16.9218 9.67498 19.152C9.59481 19.2887 9.54235 19.4399 9.5206 19.5969C9.49885 19.7538 9.50824 19.9136 9.54822 20.0669C9.5882 20.2203 9.658 20.3643 9.75363 20.4907C9.84926 20.6171 9.96885 20.7234 10.1056 20.8035C10.2423 20.8837 10.3934 20.9362 10.5504 20.9579C10.7074 20.9797 10.8672 20.9703 11.0205 20.9303C11.1739 20.8903 11.3179 20.8205 11.4443 20.7249C11.5706 20.6293 11.677 20.5097 11.7571 20.373C13.2799 17.776 14.0803 14.8189 14.0752 11.8084C14.0852 8.7869 13.2869 5.81766 11.763 3.20853C11.5988 2.93164 11.3312 2.73134 11.0193 2.6517C10.7074 2.57205 10.3766 2.61959 10.0997 2.78385C9.82277 2.9481 9.62247 3.21563 9.54283 3.52757C9.46318 3.83951 9.51072 4.17031 9.67498 4.4472ZM14.0516 2.14682C15.728 5.08831 16.6064 8.4169 16.5997 11.8025C16.6056 15.1862 15.7273 18.5127 14.0516 21.4524C13.9742 21.5899 13.9245 21.7413 13.9056 21.8979C13.8866 22.0546 13.8987 22.2135 13.9412 22.3655C13.9836 22.5174 14.0556 22.6596 14.153 22.7838C14.2504 22.9079 14.3712 23.0117 14.5087 23.0892C14.6462 23.1666 14.7976 23.2163 14.9543 23.2352C15.111 23.2542 15.2698 23.2421 15.4218 23.1996C15.5738 23.1572 15.716 23.0852 15.8401 22.9878C15.9643 22.8904 16.0681 22.7696 16.1456 22.6321C18.028 19.3271 19.0161 15.5883 19.0122 11.7849C19.0209 7.9714 18.0327 4.22191 16.1456 0.908147C15.9891 0.630473 15.7288 0.426316 15.4218 0.340587C15.1149 0.254859 14.7864 0.294582 14.5087 0.451019C14.2311 0.607455 14.0269 0.867789 13.9412 1.17475C13.8555 1.48171 13.8952 1.81016 14.0516 2.08783" fill="white"/>
</svg>
