<svg width="30" height="30" viewBox="0 0 30 30" fill="none" xmlns="http://www.w3.org/2000/svg">
<path d="M17.6925 15.5775H22.7888V14.3275H17.6925V15.5775ZM17.6925 12.115H22.7888V10.865H17.6925V12.115ZM7.21125 19.135H15.4813V18.9275C15.4813 18.1983 15.1146 17.6337 14.3813 17.2337C13.6479 16.8337 12.6362 16.6337 11.3462 16.6337C10.0562 16.6337 9.04417 16.8337 8.31 17.2337C7.57583 17.6337 7.20958 18.1983 7.21125 18.9275V19.135ZM11.3462 14.615C11.8737 14.615 12.3179 14.4346 12.6787 14.0737C13.0404 13.7121 13.2212 13.2675 13.2212 12.74C13.2212 12.2125 13.0404 11.7683 12.6787 11.4075C12.3171 11.0467 11.8729 10.8658 11.3462 10.865C10.8196 10.8642 10.3754 11.045 10.0137 11.4075C9.65208 11.77 9.47125 12.2142 9.47125 12.74C9.47125 13.2658 9.65208 13.7104 10.0137 14.0737C10.3754 14.4371 10.8196 14.6175 11.3462 14.615ZM3.75 23.75V6.25H26.25V23.75H3.75ZM5 22.5H25V7.5H5V22.5Z" fill="#E3E3E4"/>
</svg>
