<svg width="44" height="33" viewBox="0 0 44 33" fill="none" xmlns="http://www.w3.org/2000/svg">
<rect x="1.15319" y="0.817188" width="41.9627" height="31.773" rx="6.14668" fill="#DDD9D6" stroke="#666666" stroke-width="0.819558"/>
<path fill-rule="evenodd" clip-rule="evenodd" d="M28.1477 7.5625C26.6856 4.64278 24.3887 2.35017 22.8778 1.4543C22.7779 1.39652 22.705 1.30142 22.6752 1.18992C22.6454 1.07843 22.6612 0.959666 22.7189 0.859766C22.7767 0.759866 22.8718 0.687011 22.9833 0.657228C23.0949 0.627445 23.2136 0.643173 23.3135 0.700953C25.2928 1.86151 27.5938 4.52469 28.9133 7.15529C28.9451 7.20566 28.9654 7.26239 28.9729 7.32148C28.9803 7.38056 28.9747 7.44056 28.9565 7.49725C28.9382 7.55394 28.9078 7.60594 28.8672 7.64958C28.8267 7.69321 28.7771 7.72743 28.7219 7.74982C28.6631 7.78157 28.5973 7.79835 28.5305 7.79868C28.451 7.79876 28.3731 7.77671 28.3055 7.73499C28.2379 7.69327 28.1832 7.63354 28.1477 7.5625ZM14.9119 21.534C14.9404 25.5817 18.7482 30.4072 21.371 31.9668C21.4216 31.9932 21.4661 32.03 21.5015 32.0747C21.537 32.1195 21.5627 32.1711 21.5769 32.2264C21.5911 32.2817 21.5935 32.3394 21.584 32.3957C21.5745 32.452 21.5532 32.5056 21.5216 32.5532C21.4832 32.6173 21.4289 32.6705 21.364 32.7075C21.2991 32.7446 21.2258 32.7644 21.151 32.7649C21.0748 32.7652 21 32.744 20.9352 32.7039C18.1373 31.0546 14.3091 26.2332 14.0648 21.9168H1.17103C1.06429 21.9064 0.96525 21.8566 0.893191 21.7772C0.821132 21.6978 0.781216 21.5944 0.781216 21.4872C0.781216 21.3799 0.821132 21.2765 0.893191 21.1971C0.96525 21.1177 1.06429 21.068 1.17103 21.0576H14.1462C14.9589 18.2096 14.9589 15.1912 14.1462 12.3432H1.17103C1.05762 12.3432 0.948849 12.2981 0.868655 12.218C0.788461 12.1378 0.743408 12.029 0.743408 11.9156C0.743408 11.8022 0.788461 11.6935 0.868655 11.6133C0.948849 11.5331 1.05762 11.488 1.17103 11.488H14.0648C14.3091 7.15529 18.1536 2.35017 20.9352 0.700953C21.0351 0.643173 21.1539 0.627445 21.2654 0.657228C21.3769 0.687011 21.472 0.759866 21.5298 0.859766C21.5876 0.959666 21.6033 1.07843 21.5735 1.18992C21.5437 1.30142 21.4709 1.39652 21.371 1.4543C18.7482 2.99356 14.9404 7.82312 14.9119 11.8749C15.8447 15.027 15.8447 18.3818 14.9119 21.534ZM43.0981 21.0576H30.0985C29.2858 18.2097 29.2858 15.1912 30.0985 12.3433H43.0981C43.2115 12.3433 43.3203 12.2982 43.4005 12.218C43.4806 12.1378 43.5257 12.0291 43.5257 11.9157C43.5257 11.8023 43.4806 11.6935 43.4005 11.6134C43.3203 11.5332 43.2115 11.4881 43.0981 11.4881H29.7686C29.6759 11.4892 29.586 11.5203 29.5126 11.5769C29.4391 11.6334 29.386 11.7123 29.3613 11.8017C28.4145 14.9767 28.4145 18.359 29.3613 21.5341C29.3328 25.5818 25.525 30.4073 22.9022 31.9669C22.8503 31.9918 22.8042 32.0275 22.767 32.0716C22.7299 32.1156 22.7025 32.1671 22.6867 32.2225C22.671 32.2779 22.6671 32.3361 22.6755 32.3931C22.6838 32.4501 22.7042 32.5047 22.7353 32.5533C22.7737 32.6174 22.8279 32.6705 22.8928 32.7076C22.9578 32.7447 23.0311 32.7645 23.1059 32.765C23.1821 32.7653 23.2569 32.7441 23.3217 32.7039C26.1033 31.0751 29.9478 26.2333 30.1921 21.9169H43.0981C43.2048 21.9065 43.3039 21.8567 43.3759 21.7773C43.448 21.6979 43.4879 21.5945 43.4879 21.4872C43.4879 21.38 43.448 21.2766 43.3759 21.1972C43.3039 21.1178 43.2048 21.068 43.0981 21.0576ZM21.699 3.03299C21.8249 2.94887 21.9729 2.90397 22.1243 2.90397C22.3274 2.90397 22.5222 2.98463 22.6657 3.1282C22.8093 3.27177 22.89 3.4665 22.89 3.66953C22.89 3.82095 22.8451 3.96896 22.761 4.09486C22.6768 4.22075 22.5572 4.31888 22.4173 4.37682C22.2774 4.43476 22.1235 4.44993 21.975 4.42039C21.8265 4.39085 21.69 4.31793 21.583 4.21087C21.4759 4.1038 21.403 3.96739 21.3734 3.81889C21.3439 3.67038 21.359 3.51646 21.417 3.37657C21.4749 3.23668 21.5731 3.11711 21.699 3.03299Z" fill="#666666"/>
</svg>
