<svg width="74" height="46" viewBox="0 0 74 46" fill="none" xmlns="http://www.w3.org/2000/svg">
<path d="M47.9077 5.51324H26.0869V41.1492H47.9077V5.51324Z" fill="#FF5F00"/>
<path d="M28.3344 23.3345C28.3317 19.903 29.1096 16.516 30.6094 13.4295C32.1091 10.3431 34.2913 7.63826 36.9909 5.51964C33.6474 2.89224 29.632 1.25842 25.4037 0.804909C21.1755 0.351393 16.9049 1.09648 13.0801 2.95501C9.25527 4.81354 6.03056 7.71053 3.77449 11.3149C1.51842 14.9192 0.322021 19.0855 0.322021 23.3376C0.322021 27.5897 1.51842 31.756 3.77449 35.3603C6.03056 38.9647 9.25527 41.8617 13.0801 43.7202C16.9049 45.5788 21.1755 46.3238 25.4037 45.8703C29.632 45.4168 33.6474 43.783 36.9909 41.1556C34.2905 39.0363 32.1078 36.3304 30.608 33.2429C29.1082 30.1553 28.3307 26.767 28.3344 23.3345Z" fill="#EB001B"/>
<path d="M71.4974 37.3786V36.6483H71.8122V36.4973H71.063V36.6483H71.3589V37.3786H71.4974ZM72.9517 37.3786V36.4973H72.725L72.4606 37.1268L72.1962 36.4973H71.9696V37.3786H72.1333V36.7113L72.3788 37.2841H72.5488L72.7943 36.7113V37.3786H72.9517Z" fill="#F79E1B"/>
<path d="M73.6632 23.3344C73.6631 27.5868 72.4664 31.7533 70.2099 35.3578C67.9535 38.9623 64.7283 41.8592 60.903 43.7175C57.0777 45.5758 52.8067 46.3204 48.5782 45.8662C44.3497 45.412 40.3343 43.7774 36.991 41.1492C39.6895 39.0287 41.8711 36.3231 43.3712 33.2365C44.8714 30.1499 45.6508 26.763 45.6508 23.3312C45.6508 19.8995 44.8714 16.5125 43.3712 13.426C41.8711 10.3394 39.6895 7.63376 36.991 5.51325C40.3343 2.88504 44.3497 1.25043 48.5782 0.79626C52.8067 0.342093 57.0777 1.0867 60.903 2.94496C64.7283 4.80323 67.9535 7.70017 70.2099 11.3046C72.4664 14.9091 73.6631 19.0757 73.6632 23.3281V23.3344Z" fill="#F79E1B"/>
</svg>
