<svg width="30" height="30" viewBox="0 0 30 30" fill="none" xmlns="http://www.w3.org/2000/svg">
<path d="M6 11.25C6 11.0511 6.07902 10.8603 6.21967 10.7197C6.36032 10.579 6.55109 10.5 6.75 10.5C6.94891 10.5 7.13968 10.579 7.28033 10.7197C7.42098 10.8603 7.5 11.0511 7.5 11.25V21C7.5 21.7956 7.81607 22.5587 8.37868 23.1213C8.94129 23.6839 9.70435 24 10.5 24H22.5C23.2956 24 24.0587 23.6839 24.6213 23.1213C25.1839 22.5587 25.5 21.7956 25.5 21V11.25C25.5 11.0511 25.579 10.8603 25.7197 10.7197C25.8603 10.579 26.0511 10.5 26.25 10.5C26.4489 10.5 26.6397 10.579 26.7803 10.7197C26.921 10.8603 27 11.0511 27 11.25V21C27 22.1935 26.5259 23.3381 25.682 24.182C24.8381 25.0259 23.6935 25.5 22.5 25.5H10.5C9.30653 25.5 8.16193 25.0259 7.31802 24.182C6.47411 23.3381 6 22.1935 6 21V11.25ZM22.281 11.469C22.3508 11.5387 22.4063 11.6214 22.4441 11.7125C22.4819 11.8037 22.5013 11.9013 22.5013 12C22.5013 12.0987 22.4819 12.1963 22.4441 12.2874C22.4063 12.3786 22.3508 12.4613 22.281 12.531L17.031 17.781C16.9613 17.8508 16.8786 17.9063 16.7874 17.9441C16.6963 17.9819 16.5987 18.0013 16.5 18.0013C16.4013 18.0013 16.3037 17.9819 16.2126 17.9441C16.1214 17.9063 16.0387 17.8508 15.969 17.781L10.719 12.531C10.5782 12.3902 10.4991 12.1992 10.4991 12C10.4991 11.8008 10.5782 11.6098 10.719 11.469C10.8598 11.3282 11.0508 11.2491 11.25 11.2491C11.4492 11.2491 11.6402 11.3282 11.781 11.469L15.75 15.4395V2.25C15.75 2.05109 15.829 1.86032 15.9697 1.71967C16.1103 1.57902 16.3011 1.5 16.5 1.5C16.6989 1.5 16.8897 1.57902 17.0303 1.71967C17.171 1.86032 17.25 2.05109 17.25 2.25V15.4395L21.219 11.469C21.2887 11.3992 21.3714 11.3437 21.4625 11.3059C21.5537 11.2681 21.6513 11.2487 21.75 11.2487C21.8487 11.2487 21.9463 11.2681 22.0375 11.3059C22.1286 11.3437 22.2113 11.3992 22.281 11.469Z" fill="#E3E3E4"/>
</svg>
