<svg width="30" height="30" viewBox="0 0 30 30" fill="none" xmlns="http://www.w3.org/2000/svg">
<path d="M4.5 18.75C4.5 18.9489 4.57902 19.1397 4.71967 19.2803C4.86032 19.421 5.05109 19.5 5.25 19.5C5.44891 19.5 5.63968 19.421 5.78033 19.2803C5.92098 19.1397 6 18.9489 6 18.75V9C6 8.20435 6.31607 7.44129 6.87868 6.87868C7.44129 6.31607 8.20435 6 9 6H21C21.7956 6 22.5587 6.31607 23.1213 6.87868C23.6839 7.44129 24 8.20435 24 9V18.75C24 18.9489 24.079 19.1397 24.2197 19.2803C24.3603 19.421 24.5511 19.5 24.75 19.5C24.9489 19.5 25.1397 19.421 25.2803 19.2803C25.421 19.1397 25.5 18.9489 25.5 18.75V9C25.5 7.80653 25.0259 6.66193 24.182 5.81802C23.3381 4.97411 22.1935 4.5 21 4.5H9C7.80653 4.5 6.66193 4.97411 5.81802 5.81802C4.97411 6.66193 4.5 7.80653 4.5 9V18.75ZM20.781 20.469C20.8508 20.5387 20.9063 20.6214 20.9441 20.7126C20.9819 20.8037 21.0013 20.9014 21.0013 21C21.0013 21.0987 20.9819 21.1963 20.9441 21.2875C20.9063 21.3786 20.8508 21.4613 20.781 21.531L15.531 26.781C15.4613 26.8508 15.3786 26.9063 15.2874 26.9441C15.1963 26.9819 15.0987 27.0013 15 27.0013C14.9013 27.0013 14.8037 26.9819 14.7126 26.9441C14.6214 26.9063 14.5387 26.8508 14.469 26.781L9.219 21.531C9.14927 21.4613 9.09395 21.3785 9.05622 21.2874C9.01848 21.1963 8.99905 21.0986 8.99905 21C8.99905 20.9014 9.01848 20.8037 9.05622 20.7126C9.09395 20.6215 9.14927 20.5387 9.219 20.469C9.28873 20.3993 9.37152 20.344 9.46262 20.3062C9.55373 20.2685 9.65138 20.2491 9.75 20.2491C9.84862 20.2491 9.94627 20.2685 10.0374 20.3062C10.1285 20.344 10.2113 20.3993 10.281 20.469L14.25 24.4395V11.25C14.25 11.0511 14.329 10.8603 14.4697 10.7197C14.6103 10.579 14.8011 10.5 15 10.5C15.1989 10.5 15.3897 10.579 15.5303 10.7197C15.671 10.8603 15.75 11.0511 15.75 11.25V24.4395L19.719 20.469C19.7887 20.3992 19.8714 20.3437 19.9625 20.3059C20.0537 20.2681 20.1513 20.2487 20.25 20.2487C20.3487 20.2487 20.4463 20.2681 20.5375 20.3059C20.6286 20.3437 20.7113 20.3992 20.781 20.469Z" fill="#E3E3E4"/>
</svg>
