<svg width="30" height="30" viewBox="0 0 30 30" fill="none" xmlns="http://www.w3.org/2000/svg">
<path d="M19.05 2.91427C18.9765 2.83532 18.8878 2.77199 18.7892 2.72807C18.6906 2.68415 18.5842 2.66054 18.4763 2.65863C18.3684 2.65673 18.2612 2.67658 18.1612 2.71699C18.0611 2.75741 17.9702 2.81756 17.8939 2.89387C17.8176 2.97017 17.7575 3.06107 17.717 3.16113C17.6766 3.26119 17.6568 3.36836 17.6587 3.47626C17.6606 3.58415 17.6842 3.69056 17.7281 3.78913C17.772 3.8877 17.8354 3.97641 17.9143 4.04998L21.9 8.0357H6.16075C5.94763 8.0357 5.74324 8.12036 5.59254 8.27106C5.44184 8.42175 5.35718 8.62615 5.35718 8.83927C5.35718 9.05239 5.44184 9.25678 5.59254 9.40748C5.74324 9.55818 5.94763 9.64284 6.16075 9.64284H21.9L17.9143 13.6286C17.8354 13.7021 17.772 13.7908 17.7281 13.8894C17.6842 13.988 17.6606 14.0944 17.6587 14.2023C17.6568 14.3102 17.6766 14.4173 17.717 14.5174C17.7575 14.6175 17.8176 14.7084 17.8939 14.7847C17.9702 14.861 18.0611 14.9211 18.1612 14.9615C18.2612 15.002 18.3684 15.0218 18.4763 15.0199C18.5842 15.018 18.6906 14.9944 18.7892 14.9505C18.8878 14.9065 18.9765 14.8432 19.05 14.7643L24.4072 9.40712C24.5577 9.25645 24.6422 9.05221 24.6422 8.83927C24.6422 8.62632 24.5577 8.42208 24.4072 8.27141L19.05 2.91427ZM12.0857 16.3714C12.1647 16.2978 12.228 16.2091 12.2719 16.1106C12.3159 16.012 12.3395 15.9056 12.3414 15.7977C12.3433 15.6898 12.3234 15.5826 12.283 15.4826C12.2426 15.3825 12.1825 15.2916 12.1061 15.2153C12.0298 15.139 11.9389 15.0788 11.8389 15.0384C11.7388 14.998 11.6317 14.9782 11.5238 14.9801C11.4159 14.982 11.3095 15.0056 11.2109 15.0495C11.1123 15.0934 11.0236 15.1567 10.95 15.2357L5.59289 20.5928C5.44241 20.7435 5.35788 20.9477 5.35788 21.1607C5.35788 21.3736 5.44241 21.5779 5.59289 21.7286L10.95 27.0857C11.0236 27.1646 11.1123 27.228 11.2109 27.2719C11.3095 27.3158 11.4159 27.3394 11.5238 27.3413C11.6317 27.3432 11.7388 27.3234 11.8389 27.283C11.9389 27.2426 12.0298 27.1824 12.1061 27.1061C12.1825 27.0298 12.2426 26.9389 12.283 26.8388C12.3234 26.7388 12.3433 26.6316 12.3414 26.5237C12.3395 26.4158 12.3159 26.3094 12.2719 26.2108C12.228 26.1123 12.1647 26.0235 12.0857 25.95L8.10003 21.9643H23.8393C24.0524 21.9643 24.2568 21.8796 24.4075 21.7289C24.5582 21.5782 24.6429 21.3738 24.6429 21.1607C24.6429 20.9476 24.5582 20.7432 24.4075 20.5925C24.2568 20.4418 24.0524 20.3571 23.8393 20.3571H8.10003L12.0857 16.3714Z" fill="#E3E3E4"/>
</svg>
