<svg width="23" height="22" viewBox="0 0 23 22" fill="none" xmlns="http://www.w3.org/2000/svg">
<g clip-path="url(#clip0_125_209)">
<path d="M6.05322 9.18433H9.68457" stroke="black" stroke-width="2" stroke-linecap="round" stroke-linejoin="round"/>
<path d="M19.5193 10.092H17.1567C15.5368 10.092 14.2236 11.3114 14.2236 12.8156C14.2236 14.3197 15.5368 15.5391 17.1567 15.5391H19.5193C19.595 15.5391 19.6328 15.5391 19.6648 15.5372C20.1543 15.5073 20.5443 15.1452 20.5764 14.6906C20.5785 14.6609 20.5785 14.6258 20.5785 14.5556V11.0755C20.5785 11.0053 20.5785 10.9702 20.5764 10.9405C20.5443 10.4859 20.1543 10.1238 19.6648 10.0939C19.6328 10.092 19.595 10.092 19.5193 10.092Z" stroke="black" stroke-width="2"/>
<path d="M19.639 10.0922C19.5685 8.39242 19.3409 7.35027 18.6072 6.61657C17.5436 5.55298 15.8317 5.55298 12.4081 5.55298H9.68457C6.2609 5.55298 4.54907 5.55298 3.48547 6.61657C2.42188 7.68018 2.42188 9.39204 2.42188 12.8157C2.42188 16.2393 2.42188 17.9512 3.48547 19.0147C4.54907 20.0784 6.2609 20.0784 9.68457 20.0784H12.4081C15.8317 20.0784 17.5436 20.0784 18.6072 19.0147C19.3409 18.2811 19.5685 17.2389 19.639 15.5392" stroke="black" stroke-width="2"/>
<path d="M6.05322 5.5531L9.44444 3.30451C10.3994 2.67128 11.6932 2.67128 12.6482 3.30451L16.0394 5.5531" stroke="black" stroke-width="2" stroke-linecap="round"/>
<path d="M16.9392 12.8157H16.9482" stroke="black" stroke-width="2" stroke-linecap="round" stroke-linejoin="round"/>
</g>
<defs>
<clipPath id="clip0_125_209">
<rect width="21.7881" height="21.7881" fill="white" transform="translate(0.606201 0.105957)"/>
</clipPath>
</defs>
</svg>
